<mxfile host="app.diagrams.net" agent="Mozilla/5.0 (Windows NT 10.0; Win64; x64) AppleWebKit/537.36 (KHTML, like Gecko) Chrome/136.0.0.0 Safari/537.36 Edg/136.0.0.0" version="27.0.3">
  <diagram name="Page-1" id="UY0vELD6_fXRvmQzzwlH">
    <mxGraphModel dx="2026" dy="1134" grid="1" gridSize="10" guides="1" tooltips="1" connect="1" arrows="1" fold="1" page="1" pageScale="1" pageWidth="850" pageHeight="1100" math="0" shadow="0">
      <root>
        <mxCell id="0" />
        <mxCell id="1" parent="0" />
        <mxCell id="Hzdj1JoN_IImsvnUr4C7-1" value="Người Dùng" style="swimlane;startSize=20;whiteSpace=wrap;html=1;fontStyle=1" parent="1" vertex="1">
          <mxGeometry x="60" y="150" width="390" height="1460" as="geometry" />
        </mxCell>
        <mxCell id="Hzdj1JoN_IImsvnUr4C7-7" value="" style="ellipse;html=1;shape=startState;fillColor=#000000;strokeColor=#ff0000;fontStyle=1" parent="Hzdj1JoN_IImsvnUr4C7-1" vertex="1">
          <mxGeometry x="170" y="30" width="30" height="30" as="geometry" />
        </mxCell>
        <mxCell id="Hzdj1JoN_IImsvnUr4C7-8" value="" style="edgeStyle=orthogonalEdgeStyle;html=1;verticalAlign=bottom;endArrow=open;endSize=8;strokeColor=#ff0000;rounded=0;fontStyle=1" parent="Hzdj1JoN_IImsvnUr4C7-1" source="Hzdj1JoN_IImsvnUr4C7-7" edge="1">
          <mxGeometry relative="1" as="geometry">
            <mxPoint x="185" y="120" as="targetPoint" />
          </mxGeometry>
        </mxCell>
        <mxCell id="Hzdj1JoN_IImsvnUr4C7-10" value="Truy cập hệ thống" style="rounded=1;whiteSpace=wrap;html=1;fontStyle=1" parent="Hzdj1JoN_IImsvnUr4C7-1" vertex="1">
          <mxGeometry x="125" y="120" width="120" height="60" as="geometry" />
        </mxCell>
        <mxCell id="Hzdj1JoN_IImsvnUr4C7-54" style="edgeStyle=orthogonalEdgeStyle;rounded=0;orthogonalLoop=1;jettySize=auto;html=1;fontStyle=1" parent="Hzdj1JoN_IImsvnUr4C7-1" source="Hzdj1JoN_IImsvnUr4C7-18" target="Hzdj1JoN_IImsvnUr4C7-16" edge="1">
          <mxGeometry relative="1" as="geometry" />
        </mxCell>
        <mxCell id="Hzdj1JoN_IImsvnUr4C7-55" value="Đăng ký thông thường" style="edgeLabel;html=1;align=center;verticalAlign=middle;resizable=0;points=[];fontStyle=1" parent="Hzdj1JoN_IImsvnUr4C7-54" vertex="1" connectable="0">
          <mxGeometry x="-0.3106" y="-1" relative="1" as="geometry">
            <mxPoint as="offset" />
          </mxGeometry>
        </mxCell>
        <mxCell id="Hzdj1JoN_IImsvnUr4C7-18" value="Chọn phương thức đăng ký" style="rhombus;whiteSpace=wrap;html=1;fontStyle=1" parent="Hzdj1JoN_IImsvnUr4C7-1" vertex="1">
          <mxGeometry x="145" y="210" width="80" height="80" as="geometry" />
        </mxCell>
        <mxCell id="Hzdj1JoN_IImsvnUr4C7-16" value="Nhập thông tin cá nhân" style="rounded=1;whiteSpace=wrap;html=1;fontStyle=1" parent="Hzdj1JoN_IImsvnUr4C7-1" vertex="1">
          <mxGeometry x="125" y="340" width="120" height="60" as="geometry" />
        </mxCell>
        <mxCell id="Hzdj1JoN_IImsvnUr4C7-31" style="edgeStyle=orthogonalEdgeStyle;rounded=0;orthogonalLoop=1;jettySize=auto;html=1;fontStyle=1" parent="Hzdj1JoN_IImsvnUr4C7-1" source="Hzdj1JoN_IImsvnUr4C7-21" target="Hzdj1JoN_IImsvnUr4C7-29" edge="1">
          <mxGeometry relative="1" as="geometry" />
        </mxCell>
        <mxCell id="Hzdj1JoN_IImsvnUr4C7-32" value="Hợp lệ" style="edgeLabel;html=1;align=center;verticalAlign=middle;resizable=0;points=[];fontStyle=1" parent="Hzdj1JoN_IImsvnUr4C7-31" vertex="1" connectable="0">
          <mxGeometry x="-0.3237" y="2" relative="1" as="geometry">
            <mxPoint as="offset" />
          </mxGeometry>
        </mxCell>
        <mxCell id="Hzdj1JoN_IImsvnUr4C7-21" value="kiểm tra thông tin" style="rhombus;whiteSpace=wrap;html=1;fontStyle=1" parent="Hzdj1JoN_IImsvnUr4C7-1" vertex="1">
          <mxGeometry x="610" y="330" width="80" height="80" as="geometry" />
        </mxCell>
        <mxCell id="Hzdj1JoN_IImsvnUr4C7-48" style="edgeStyle=orthogonalEdgeStyle;rounded=0;orthogonalLoop=1;jettySize=auto;html=1;fontStyle=1" parent="Hzdj1JoN_IImsvnUr4C7-1" source="Hzdj1JoN_IImsvnUr4C7-29" target="Hzdj1JoN_IImsvnUr4C7-47" edge="1">
          <mxGeometry relative="1" as="geometry" />
        </mxCell>
        <mxCell id="Hzdj1JoN_IImsvnUr4C7-50" value="Chưa tồn tại" style="edgeLabel;html=1;align=center;verticalAlign=middle;resizable=0;points=[];fontStyle=1" parent="Hzdj1JoN_IImsvnUr4C7-48" vertex="1" connectable="0">
          <mxGeometry x="-0.144" y="-1" relative="1" as="geometry">
            <mxPoint as="offset" />
          </mxGeometry>
        </mxCell>
        <mxCell id="Hzdj1JoN_IImsvnUr4C7-29" value="email đã tồn tại" style="rhombus;whiteSpace=wrap;html=1;fontStyle=1" parent="Hzdj1JoN_IImsvnUr4C7-1" vertex="1">
          <mxGeometry x="610" y="470" width="80" height="80" as="geometry" />
        </mxCell>
        <mxCell id="Hzdj1JoN_IImsvnUr4C7-60" style="edgeStyle=orthogonalEdgeStyle;rounded=0;orthogonalLoop=1;jettySize=auto;html=1;entryX=1;entryY=0.5;entryDx=0;entryDy=0;fontStyle=1" parent="Hzdj1JoN_IImsvnUr4C7-1" source="Hzdj1JoN_IImsvnUr4C7-47" target="Hzdj1JoN_IImsvnUr4C7-57" edge="1">
          <mxGeometry relative="1" as="geometry">
            <Array as="points">
              <mxPoint x="650" y="740" />
            </Array>
          </mxGeometry>
        </mxCell>
        <mxCell id="Hzdj1JoN_IImsvnUr4C7-47" value="Gửi mã xác thực email" style="rounded=1;whiteSpace=wrap;html=1;fontStyle=1" parent="Hzdj1JoN_IImsvnUr4C7-1" vertex="1">
          <mxGeometry x="590" y="600" width="120" height="60" as="geometry" />
        </mxCell>
        <mxCell id="Hzdj1JoN_IImsvnUr4C7-59" style="edgeStyle=orthogonalEdgeStyle;rounded=0;orthogonalLoop=1;jettySize=auto;html=1;fontStyle=1" parent="Hzdj1JoN_IImsvnUr4C7-1" source="Hzdj1JoN_IImsvnUr4C7-52" target="Hzdj1JoN_IImsvnUr4C7-58" edge="1">
          <mxGeometry relative="1" as="geometry">
            <Array as="points">
              <mxPoint x="485" y="680" />
              <mxPoint x="100" y="680" />
            </Array>
          </mxGeometry>
        </mxCell>
        <mxCell id="Hzdj1JoN_IImsvnUr4C7-52" value="Chuyển hướng đến GOOGLE" style="rounded=1;whiteSpace=wrap;html=1;fontStyle=1" parent="Hzdj1JoN_IImsvnUr4C7-1" vertex="1">
          <mxGeometry x="425" y="600" width="120" height="60" as="geometry" />
        </mxCell>
        <mxCell id="Hzdj1JoN_IImsvnUr4C7-51" style="edgeStyle=orthogonalEdgeStyle;rounded=0;orthogonalLoop=1;jettySize=auto;html=1;entryX=0;entryY=0.5;entryDx=0;entryDy=0;fontStyle=1" parent="Hzdj1JoN_IImsvnUr4C7-1" source="Hzdj1JoN_IImsvnUr4C7-18" target="Hzdj1JoN_IImsvnUr4C7-52" edge="1">
          <mxGeometry relative="1" as="geometry">
            <mxPoint x="125" y="750" as="targetPoint" />
            <Array as="points">
              <mxPoint x="105" y="250" />
              <mxPoint x="105" y="630" />
            </Array>
          </mxGeometry>
        </mxCell>
        <mxCell id="Hzdj1JoN_IImsvnUr4C7-56" value="Đăng ký bằng GOOGLE" style="edgeLabel;html=1;align=center;verticalAlign=middle;resizable=0;points=[];fontStyle=1" parent="Hzdj1JoN_IImsvnUr4C7-51" vertex="1" connectable="0">
          <mxGeometry x="-0.3476" y="-3" relative="1" as="geometry">
            <mxPoint as="offset" />
          </mxGeometry>
        </mxCell>
        <mxCell id="Hzdj1JoN_IImsvnUr4C7-22" style="edgeStyle=orthogonalEdgeStyle;rounded=0;orthogonalLoop=1;jettySize=auto;html=1;entryX=0;entryY=0.5;entryDx=0;entryDy=0;fontStyle=1" parent="Hzdj1JoN_IImsvnUr4C7-1" source="Hzdj1JoN_IImsvnUr4C7-16" target="Hzdj1JoN_IImsvnUr4C7-21" edge="1">
          <mxGeometry relative="1" as="geometry" />
        </mxCell>
        <mxCell id="Hzdj1JoN_IImsvnUr4C7-27" style="edgeStyle=orthogonalEdgeStyle;rounded=0;orthogonalLoop=1;jettySize=auto;html=1;entryX=0.824;entryY=0.017;entryDx=0;entryDy=0;entryPerimeter=0;fontStyle=1" parent="Hzdj1JoN_IImsvnUr4C7-1" source="Hzdj1JoN_IImsvnUr4C7-21" target="Hzdj1JoN_IImsvnUr4C7-16" edge="1">
          <mxGeometry relative="1" as="geometry">
            <Array as="points">
              <mxPoint x="650" y="320" />
              <mxPoint x="224" y="320" />
            </Array>
          </mxGeometry>
        </mxCell>
        <mxCell id="Hzdj1JoN_IImsvnUr4C7-28" value="Không hợp lệ" style="edgeLabel;html=1;align=center;verticalAlign=middle;resizable=0;points=[];fontStyle=1" parent="Hzdj1JoN_IImsvnUr4C7-27" vertex="1" connectable="0">
          <mxGeometry x="-0.0955" y="-1" relative="1" as="geometry">
            <mxPoint x="51" as="offset" />
          </mxGeometry>
        </mxCell>
        <mxCell id="Hzdj1JoN_IImsvnUr4C7-33" style="edgeStyle=orthogonalEdgeStyle;rounded=0;orthogonalLoop=1;jettySize=auto;html=1;entryX=0.5;entryY=1;entryDx=0;entryDy=0;fontStyle=1" parent="Hzdj1JoN_IImsvnUr4C7-1" source="Hzdj1JoN_IImsvnUr4C7-29" target="Hzdj1JoN_IImsvnUr4C7-16" edge="1">
          <mxGeometry relative="1" as="geometry" />
        </mxCell>
        <mxCell id="Hzdj1JoN_IImsvnUr4C7-34" value="Đã tồn tại" style="edgeLabel;html=1;align=center;verticalAlign=middle;resizable=0;points=[];fontStyle=1" parent="Hzdj1JoN_IImsvnUr4C7-33" vertex="1" connectable="0">
          <mxGeometry x="-0.5983" y="-2" relative="1" as="geometry">
            <mxPoint x="12" y="2" as="offset" />
          </mxGeometry>
        </mxCell>
        <mxCell id="Hzdj1JoN_IImsvnUr4C7-58" value="Xác thực tài khoản GOOGLE" style="rounded=1;whiteSpace=wrap;html=1;fontStyle=1" parent="Hzdj1JoN_IImsvnUr4C7-1" vertex="1">
          <mxGeometry x="41" y="710" width="120" height="60" as="geometry" />
        </mxCell>
        <mxCell id="Hzdj1JoN_IImsvnUr4C7-57" value="Nhập mã xác thực từ email" style="rounded=1;whiteSpace=wrap;html=1;fontStyle=1" parent="Hzdj1JoN_IImsvnUr4C7-1" vertex="1">
          <mxGeometry x="220" y="710" width="120" height="60" as="geometry" />
        </mxCell>
        <mxCell id="Hzdj1JoN_IImsvnUr4C7-68" value="Thiết lập mật khẩu" style="rounded=1;whiteSpace=wrap;html=1;fontStyle=1" parent="Hzdj1JoN_IImsvnUr4C7-1" vertex="1">
          <mxGeometry x="220" y="910" width="120" height="60" as="geometry" />
        </mxCell>
        <mxCell id="Hzdj1JoN_IImsvnUr4C7-74" value="Bổ sung thông tin cá nhân" style="rounded=1;whiteSpace=wrap;html=1;fontStyle=1" parent="Hzdj1JoN_IImsvnUr4C7-1" vertex="1">
          <mxGeometry x="60" y="910" width="120" height="60" as="geometry" />
        </mxCell>
        <mxCell id="Hzdj1JoN_IImsvnUr4C7-87" value="" style="ellipse;html=1;shape=endState;fillColor=#000000;strokeColor=#ff0000;fontStyle=1" parent="Hzdj1JoN_IImsvnUr4C7-1" vertex="1">
          <mxGeometry x="161" y="1410" width="30" height="30" as="geometry" />
        </mxCell>
        <mxCell id="ydiBdMsfnsDGGxbx09Au-6" style="edgeStyle=orthogonalEdgeStyle;rounded=0;orthogonalLoop=1;jettySize=auto;html=1;entryX=0.5;entryY=0;entryDx=0;entryDy=0;" parent="Hzdj1JoN_IImsvnUr4C7-1" source="ydiBdMsfnsDGGxbx09Au-4" target="Hzdj1JoN_IImsvnUr4C7-87" edge="1">
          <mxGeometry relative="1" as="geometry" />
        </mxCell>
        <mxCell id="ydiBdMsfnsDGGxbx09Au-4" value="Truy cập trang chủ" style="rounded=1;whiteSpace=wrap;html=1;fontStyle=1" parent="Hzdj1JoN_IImsvnUr4C7-1" vertex="1">
          <mxGeometry x="116" y="1330" width="120" height="60" as="geometry" />
        </mxCell>
        <mxCell id="Hzdj1JoN_IImsvnUr4C7-2" value="Hệ Thống" style="swimlane;startSize=20;whiteSpace=wrap;html=1;fontStyle=1" parent="1" vertex="1">
          <mxGeometry x="450" y="150" width="380" height="1460" as="geometry" />
        </mxCell>
        <mxCell id="Hzdj1JoN_IImsvnUr4C7-12" value="Hiển thị form đăng ký tài khoản" style="rounded=1;whiteSpace=wrap;html=1;fontStyle=1" parent="Hzdj1JoN_IImsvnUr4C7-2" vertex="1">
          <mxGeometry x="130" y="120" width="120" height="60" as="geometry" />
        </mxCell>
        <mxCell id="Hzdj1JoN_IImsvnUr4C7-61" value="Kiểm tra mã xác thực" style="rhombus;whiteSpace=wrap;html=1;fontStyle=1" parent="Hzdj1JoN_IImsvnUr4C7-2" vertex="1">
          <mxGeometry x="50" y="780" width="80" height="80" as="geometry" />
        </mxCell>
        <mxCell id="Hzdj1JoN_IImsvnUr4C7-93" style="edgeStyle=orthogonalEdgeStyle;rounded=0;orthogonalLoop=1;jettySize=auto;html=1;entryX=1;entryY=0.5;entryDx=0;entryDy=0;fontStyle=1" parent="Hzdj1JoN_IImsvnUr4C7-2" source="Hzdj1JoN_IImsvnUr4C7-71" target="Hzdj1JoN_IImsvnUr4C7-86" edge="1">
          <mxGeometry relative="1" as="geometry">
            <Array as="points">
              <mxPoint x="330" y="820" />
              <mxPoint x="330" y="1270" />
            </Array>
          </mxGeometry>
        </mxCell>
        <mxCell id="Hzdj1JoN_IImsvnUr4C7-94" value="Đã đăng ký" style="edgeLabel;html=1;align=center;verticalAlign=middle;resizable=0;points=[];fontStyle=1" parent="Hzdj1JoN_IImsvnUr4C7-93" vertex="1" connectable="0">
          <mxGeometry x="-0.4385" y="1" relative="1" as="geometry">
            <mxPoint as="offset" />
          </mxGeometry>
        </mxCell>
        <mxCell id="Hzdj1JoN_IImsvnUr4C7-71" value="Email đã đăng ký" style="rhombus;whiteSpace=wrap;html=1;fontStyle=1" parent="Hzdj1JoN_IImsvnUr4C7-2" vertex="1">
          <mxGeometry x="200" y="780" width="80" height="80" as="geometry" />
        </mxCell>
        <mxCell id="Hzdj1JoN_IImsvnUr4C7-84" style="edgeStyle=orthogonalEdgeStyle;rounded=0;orthogonalLoop=1;jettySize=auto;html=1;fontStyle=1" parent="Hzdj1JoN_IImsvnUr4C7-2" source="Hzdj1JoN_IImsvnUr4C7-78" target="Hzdj1JoN_IImsvnUr4C7-83" edge="1">
          <mxGeometry relative="1" as="geometry" />
        </mxCell>
        <mxCell id="Hzdj1JoN_IImsvnUr4C7-78" value="Tạo tài khoản với GOOGLE" style="rounded=1;whiteSpace=wrap;html=1;fontStyle=1" parent="Hzdj1JoN_IImsvnUr4C7-2" vertex="1">
          <mxGeometry x="35" y="1030" width="120" height="60" as="geometry" />
        </mxCell>
        <mxCell id="Hzdj1JoN_IImsvnUr4C7-85" style="edgeStyle=orthogonalEdgeStyle;rounded=0;orthogonalLoop=1;jettySize=auto;html=1;entryX=0.75;entryY=0;entryDx=0;entryDy=0;fontStyle=1" parent="Hzdj1JoN_IImsvnUr4C7-2" source="Hzdj1JoN_IImsvnUr4C7-80" target="Hzdj1JoN_IImsvnUr4C7-83" edge="1">
          <mxGeometry relative="1" as="geometry" />
        </mxCell>
        <mxCell id="Hzdj1JoN_IImsvnUr4C7-80" value="Tạo tài khoản mới" style="rounded=1;whiteSpace=wrap;html=1;fontStyle=1" parent="Hzdj1JoN_IImsvnUr4C7-2" vertex="1">
          <mxGeometry x="180" y="1030" width="120" height="60" as="geometry" />
        </mxCell>
        <mxCell id="Hzdj1JoN_IImsvnUr4C7-92" style="edgeStyle=orthogonalEdgeStyle;rounded=0;orthogonalLoop=1;jettySize=auto;html=1;fontStyle=1" parent="Hzdj1JoN_IImsvnUr4C7-2" source="Hzdj1JoN_IImsvnUr4C7-83" target="Hzdj1JoN_IImsvnUr4C7-86" edge="1">
          <mxGeometry relative="1" as="geometry" />
        </mxCell>
        <mxCell id="Hzdj1JoN_IImsvnUr4C7-83" value="Lưu thông tin &amp;amp; kích hoạt tài khoản" style="rounded=1;whiteSpace=wrap;html=1;fontStyle=1" parent="Hzdj1JoN_IImsvnUr4C7-2" vertex="1">
          <mxGeometry x="110" y="1150" width="120" height="60" as="geometry" />
        </mxCell>
        <mxCell id="Hzdj1JoN_IImsvnUr4C7-86" value="Hoàn tất đăng ký" style="rounded=1;whiteSpace=wrap;html=1;fontStyle=1" parent="Hzdj1JoN_IImsvnUr4C7-2" vertex="1">
          <mxGeometry x="110" y="1240" width="120" height="60" as="geometry" />
        </mxCell>
        <mxCell id="ydiBdMsfnsDGGxbx09Au-1" value="Thông báo thành công" style="rounded=1;whiteSpace=wrap;html=1;fontStyle=1" parent="Hzdj1JoN_IImsvnUr4C7-2" vertex="1">
          <mxGeometry x="110" y="1330" width="120" height="60" as="geometry" />
        </mxCell>
        <mxCell id="ydiBdMsfnsDGGxbx09Au-2" style="edgeStyle=orthogonalEdgeStyle;rounded=0;orthogonalLoop=1;jettySize=auto;html=1;fontStyle=1" parent="Hzdj1JoN_IImsvnUr4C7-2" source="Hzdj1JoN_IImsvnUr4C7-86" target="ydiBdMsfnsDGGxbx09Au-1" edge="1">
          <mxGeometry relative="1" as="geometry" />
        </mxCell>
        <mxCell id="Hzdj1JoN_IImsvnUr4C7-13" style="edgeStyle=orthogonalEdgeStyle;rounded=0;orthogonalLoop=1;jettySize=auto;html=1;entryX=0;entryY=0.5;entryDx=0;entryDy=0;fontStyle=1" parent="1" source="Hzdj1JoN_IImsvnUr4C7-10" target="Hzdj1JoN_IImsvnUr4C7-12" edge="1">
          <mxGeometry relative="1" as="geometry" />
        </mxCell>
        <mxCell id="Hzdj1JoN_IImsvnUr4C7-15" style="edgeStyle=orthogonalEdgeStyle;rounded=0;orthogonalLoop=1;jettySize=auto;html=1;entryX=1;entryY=0.5;entryDx=0;entryDy=0;fontStyle=1" parent="1" source="Hzdj1JoN_IImsvnUr4C7-12" target="Hzdj1JoN_IImsvnUr4C7-18" edge="1">
          <mxGeometry relative="1" as="geometry">
            <mxPoint x="305" y="400" as="targetPoint" />
            <Array as="points">
              <mxPoint x="640" y="400" />
            </Array>
          </mxGeometry>
        </mxCell>
        <mxCell id="Hzdj1JoN_IImsvnUr4C7-62" style="edgeStyle=orthogonalEdgeStyle;rounded=0;orthogonalLoop=1;jettySize=auto;html=1;entryX=0;entryY=0.5;entryDx=0;entryDy=0;fontStyle=1" parent="1" source="Hzdj1JoN_IImsvnUr4C7-57" target="Hzdj1JoN_IImsvnUr4C7-61" edge="1">
          <mxGeometry relative="1" as="geometry">
            <Array as="points">
              <mxPoint x="340" y="970" />
            </Array>
          </mxGeometry>
        </mxCell>
        <mxCell id="Hzdj1JoN_IImsvnUr4C7-64" style="edgeStyle=orthogonalEdgeStyle;rounded=0;orthogonalLoop=1;jettySize=auto;html=1;entryX=1;entryY=0.75;entryDx=0;entryDy=0;fontStyle=1" parent="1" source="Hzdj1JoN_IImsvnUr4C7-61" target="Hzdj1JoN_IImsvnUr4C7-57" edge="1">
          <mxGeometry relative="1" as="geometry">
            <Array as="points">
              <mxPoint x="540" y="905" />
            </Array>
          </mxGeometry>
        </mxCell>
        <mxCell id="Hzdj1JoN_IImsvnUr4C7-65" value="Không hợp lệ" style="edgeLabel;html=1;align=center;verticalAlign=middle;resizable=0;points=[];fontStyle=1" parent="Hzdj1JoN_IImsvnUr4C7-64" vertex="1" connectable="0">
          <mxGeometry x="0.079" relative="1" as="geometry">
            <mxPoint as="offset" />
          </mxGeometry>
        </mxCell>
        <mxCell id="Hzdj1JoN_IImsvnUr4C7-69" style="edgeStyle=orthogonalEdgeStyle;rounded=0;orthogonalLoop=1;jettySize=auto;html=1;entryX=1;entryY=0.5;entryDx=0;entryDy=0;fontStyle=1" parent="1" source="Hzdj1JoN_IImsvnUr4C7-61" target="Hzdj1JoN_IImsvnUr4C7-68" edge="1">
          <mxGeometry relative="1" as="geometry">
            <Array as="points">
              <mxPoint x="540" y="1090" />
            </Array>
          </mxGeometry>
        </mxCell>
        <mxCell id="Hzdj1JoN_IImsvnUr4C7-70" value="Hợp lệ" style="edgeLabel;html=1;align=center;verticalAlign=middle;resizable=0;points=[];fontStyle=1" parent="Hzdj1JoN_IImsvnUr4C7-69" vertex="1" connectable="0">
          <mxGeometry x="0.2751" y="-3" relative="1" as="geometry">
            <mxPoint y="3" as="offset" />
          </mxGeometry>
        </mxCell>
        <mxCell id="Hzdj1JoN_IImsvnUr4C7-75" style="edgeStyle=orthogonalEdgeStyle;rounded=0;orthogonalLoop=1;jettySize=auto;html=1;entryX=1;entryY=0.5;entryDx=0;entryDy=0;fontStyle=1" parent="1" source="Hzdj1JoN_IImsvnUr4C7-71" target="Hzdj1JoN_IImsvnUr4C7-74" edge="1">
          <mxGeometry relative="1" as="geometry">
            <Array as="points">
              <mxPoint x="690" y="1140" />
              <mxPoint x="270" y="1140" />
              <mxPoint x="270" y="1090" />
            </Array>
          </mxGeometry>
        </mxCell>
        <mxCell id="Hzdj1JoN_IImsvnUr4C7-76" value="Chưa đăng ký" style="edgeLabel;html=1;align=center;verticalAlign=middle;resizable=0;points=[];fontStyle=1" parent="Hzdj1JoN_IImsvnUr4C7-75" vertex="1" connectable="0">
          <mxGeometry x="-0.8648" y="-3" relative="1" as="geometry">
            <mxPoint x="-87" y="88" as="offset" />
          </mxGeometry>
        </mxCell>
        <mxCell id="Hzdj1JoN_IImsvnUr4C7-79" style="edgeStyle=orthogonalEdgeStyle;rounded=0;orthogonalLoop=1;jettySize=auto;html=1;entryX=0;entryY=0.5;entryDx=0;entryDy=0;fontStyle=1" parent="1" source="Hzdj1JoN_IImsvnUr4C7-58" target="Hzdj1JoN_IImsvnUr4C7-71" edge="1">
          <mxGeometry relative="1" as="geometry">
            <Array as="points">
              <mxPoint x="161" y="1040" />
              <mxPoint x="610" y="1040" />
              <mxPoint x="610" y="970" />
            </Array>
          </mxGeometry>
        </mxCell>
        <mxCell id="Hzdj1JoN_IImsvnUr4C7-81" style="edgeStyle=orthogonalEdgeStyle;rounded=0;orthogonalLoop=1;jettySize=auto;html=1;entryX=0;entryY=0.5;entryDx=0;entryDy=0;fontStyle=1" parent="1" source="Hzdj1JoN_IImsvnUr4C7-74" target="Hzdj1JoN_IImsvnUr4C7-78" edge="1">
          <mxGeometry relative="1" as="geometry">
            <Array as="points">
              <mxPoint x="180" y="1210" />
            </Array>
          </mxGeometry>
        </mxCell>
        <mxCell id="Hzdj1JoN_IImsvnUr4C7-82" style="edgeStyle=orthogonalEdgeStyle;rounded=0;orthogonalLoop=1;jettySize=auto;html=1;fontStyle=1" parent="1" source="Hzdj1JoN_IImsvnUr4C7-68" target="Hzdj1JoN_IImsvnUr4C7-80" edge="1">
          <mxGeometry relative="1" as="geometry">
            <Array as="points">
              <mxPoint x="340" y="1160" />
              <mxPoint x="690" y="1160" />
            </Array>
          </mxGeometry>
        </mxCell>
        <mxCell id="Hzdj1JoN_IImsvnUr4C7-95" value="&lt;font style=&quot;font-size: 24px;&quot;&gt;Đăng ký tài khoản&lt;/font&gt;" style="text;html=1;align=center;verticalAlign=middle;whiteSpace=wrap;rounded=0;fontStyle=1" parent="1" vertex="1">
          <mxGeometry x="190" y="100" width="540" height="30" as="geometry" />
        </mxCell>
        <mxCell id="ydiBdMsfnsDGGxbx09Au-5" style="edgeStyle=orthogonalEdgeStyle;rounded=0;orthogonalLoop=1;jettySize=auto;html=1;entryX=1;entryY=0.5;entryDx=0;entryDy=0;" parent="1" source="ydiBdMsfnsDGGxbx09Au-1" target="ydiBdMsfnsDGGxbx09Au-4" edge="1">
          <mxGeometry relative="1" as="geometry" />
        </mxCell>
      </root>
    </mxGraphModel>
  </diagram>
</mxfile>
